HIERARCHY
ROOT Hips
{
  OFFSET 0.0 0.0 0.0
  CHANNELS 6 Xposition Yposition Zposition Zrotation Yrotation Xrotation
  JOINT LHipJoint
  {
    OFFSET 0.0 0.0 0.0
    CHANNELS 3 Zrotation Yrotation Xrotation
    JOINT LeftUpLeg
    {
      OFFSET 1.363059998 -1.794630051 0.839290023
      CHANNELS 3 Zrotation Yrotation Xrotation
      JOINT LeftLeg
      {
        OFFSET 2.448110104 -6.726130009 0.0
        CHANNELS 3 Zrotation Yrotation Xrotation
        JOINT LeftFoot
        {
          OFFSET 2.562200069 -7.039589882 0.0
          CHANNELS 3 Zrotation Yrotation Xrotation
          JOINT LeftToeBase
          {
            OFFSET 0.157639995 -0.433109999 2.322550058
            CHANNELS 3 Zrotation Yrotation Xrotation
            End Site
            {
              OFFSET 0.0 -0.0 1.189659953
            }
          }
        }
      }
    }
  }
  JOINT RHipJoint
  {
    OFFSET 0.0 0.0 0.0
    CHANNELS 3 Zrotation Yrotation Xrotation
    JOINT RightUpLeg
    {
      OFFSET -1.305520058 -1.794630051 0.839290023
      CHANNELS 3 Zrotation Yrotation Xrotation
      JOINT RightLeg
      {
        OFFSET -2.54253006 -6.985549927 0.0
        CHANNELS 3 Zrotation Yrotation Xrotation
        JOINT RightFoot
        {
          OFFSET -2.568259954 -7.056230068 0.0
          CHANNELS 3 Zrotation Yrotation Xrotation
          JOINT RightToeBase
          {
            OFFSET -0.164729998 -0.452589989 2.363149881
            CHANNELS 3 Zrotation Yrotation Xrotation
            End Site
            {
              OFFSET -0.0 -0.0 1.21081996
            }
          }
        }
      }
    }
  }
  JOINT LowerBack
  {
    OFFSET 0.0 0.0 0.0
    CHANNELS 3 Zrotation Yrotation Xrotation
    JOINT Spine
    {
      OFFSET 0.028270001 2.035589933 -0.193379998
      CHANNELS 3 Zrotation Yrotation Xrotation
      JOINT Spine1
      {
        OFFSET 0.05672 2.04885006 -0.042750001
        CHANNELS 3 Zrotation Yrotation Xrotation
        JOINT Neck
        {
          OFFSET 0.0 0.0 0.0
          CHANNELS 3 Zrotation Yrotation Xrotation
          JOINT Neck1
          {
            OFFSET -0.054170001 1.74624002 0.172020003
            CHANNELS 3 Zrotation Yrotation Xrotation
            JOINT Head
            {
              OFFSET 0.10407 1.761360049 -0.123970002
              CHANNELS 3 Zrotation Yrotation Xrotation
              End Site
              {
                OFFSET 0.0372 1.770439982 -0.062410001
              }
            }
          }
        }
        JOINT LeftShoulder
        {
          OFFSET 0.0 0.0 0.0
          CHANNELS 3 Zrotation Yrotation Xrotation
          JOINT LeftArm
          {
            OFFSET 3.362410069 1.200889945 -0.311210006
            CHANNELS 3 Zrotation Yrotation Xrotation
            JOINT LeftForeArm
            {
              OFFSET 4.982999802 -0.0 -0.0
              CHANNELS 3 Zrotation Yrotation Xrotation
              JOINT LeftHand
              {
                OFFSET 3.483560085 -0.0 -0.0
                CHANNELS 3 Zrotation Yrotation Xrotation
                JOINT LeftFingerBase
                {
                  OFFSET 0.0 0.0 0.0
                  CHANNELS 3 Zrotation Yrotation Xrotation
                  JOINT LeftHandIndex1
                  {
                    OFFSET 0.715260029 -0.0 -0.0
                    CHANNELS 3 Zrotation Yrotation Xrotation
                    End Site
                    {
                      OFFSET 0.576659977 -0.0 -0.0
                    }
                  }
                }
                JOINT LThumb
                {
                  OFFSET 0.0 0.0 0.0
                  CHANNELS 3 Zrotation Yrotation Xrotation
                  End Site
                  {
                    OFFSET 0.585470021 -0.0 0.585470021
                  }
                }
              }
            }
          }
        }
        JOINT RightShoulder
        {
          OFFSET 0.0 0.0 0.0
          CHANNELS 3 Zrotation Yrotation Xrotation
          JOINT RightArm
          {
            OFFSET -3.136600018 1.374050021 -0.404650003
            CHANNELS 3 Zrotation Yrotation Xrotation
            JOINT RightForeArm
            {
              OFFSET -5.241899967 -0.0 -0.0
              CHANNELS 3 Zrotation Yrotation Xrotation
              JOINT RightHand
              {
                OFFSET -3.444169998 -0.0 -0.0
                CHANNELS 3 Zrotation Yrotation Xrotation
                JOINT RightFingerBase
                {
                  OFFSET 0.0 0.0 0.0
                  CHANNELS 3 Zrotation Yrotation Xrotation
                  JOINT RightHandIndex1
                  {
                    OFFSET -0.622529984 -0.0 -0.0
                    CHANNELS 3 Zrotation Yrotation Xrotation
                    End Site
                    {
                      OFFSET -0.501900017 -0.0 -0.0
                    }
                  }
                }
                JOINT RThumb
                {
                  OFFSET 0.0 0.0 0.0
                  CHANNELS 3 Zrotation Yrotation Xrotation
                  End Site
                  {
                    OFFSET -0.509559989 -0.0 0.509559989
                  }
                }
              }
            }
          }
        }
      }
    }
  }
}
MOTION
Frames: 8
Frame Time: 0.0083333
0.0 29.803899765 0.0 -135.455993652 84.165351868 -116.9349823 0.0 -0.0 0.0 -14.956702232 -6.352200508 -40.59009552 3.255000114 11.096901894 32.607406616 4.190500259 -12.396699905 -37.197097778 0.124799989 -2.277300358 -6.272799492 0.0 -0.0 0.0 22.649097443 15.770298958 -40.839096069 -4.912098885 -13.284101486 40.441398621 -4.226499557 -0.324100286 -39.189105988 -0.436600089 -4.23980093 11.752300262 1.437300086 -1.117600083 28.734899521 1.809700012 0.253899932 11.75039959 1.061499953 0.584999919 -2.673999786 -12.083200455 -18.437700272 10.50150013 36.319591522 -20.073997498 -33.324398041 15.726493835 -12.695601463 -5.74739933 0.0 -0.0 0.0 -36.07440567 -65.962188721 25.097206116 21.964200974 -32.936496735 -6.566398621 0.0 -0.0 6.325601101 15.527895927 -11.894799232 -3.277699709 -7.125 0.0 0.0 -8.131999016 17.721899033 5.324899197 0.0 -0.0 0.0 52.430786133 66.159408569 26.533885956 -28.392801285 39.475299835 -10.372504234 0.0 -0.0 8.956602097 -8.408100128 -17.448400497 2.537699938 7.125 -0.0 0.0 18.477499008 -46.732398987 -0.81719774 
0.011199951 29.822799683 -0.037099838 -134.855026245 84.060333252 -116.356040955 0.0 -0.0 0.0 -14.327699661 -7.091402054 -40.332015991 3.297899723 11.162297249 32.829101562 3.927400112 -15.323701859 -36.071601868 0.0065 0.519800007 1.428200006 0.0 -0.0 0.0 22.771297455 15.475193977 -40.724491119 -4.886002064 -13.254302979 40.327907562 -4.217800617 0.207000539 -38.997402191 -0.47360009 -4.413600922 12.243302345 2.068900824 -1.32600069 28.859308243 1.676000357 0.165299982 11.864004135 0.580299795 0.572799802 -2.60199976 -6.704199791 -21.597902298 8.620699883 32.856399536 -24.092697144 -34.971996307 13.33480072 -14.666900635 -6.496600628 0.0 -0.0 0.0 -32.055107117 -65.080802917 24.886201859 23.303998947 -34.419597626 -7.309398651 0.0 -0.0 2.047699451 12.870001793 -12.302801132 -2.787200689 -7.125 0.0 0.0 -9.972100258 17.484100342 6.616798878 0.0 -0.0 0.0 50.127105713 65.322906494 26.457902908 -29.727104187 40.658302307 -11.23140049 0.0 -0.0 6.688199997 -8.358300209 -17.656398773 2.551599026 7.125 -0.0 0.0 18.60259819 -46.923995972 -0.913896263 
0.019901276 29.838899612 -0.052800179 -133.850036621 84.573753357 -114.994995117 0.0 -0.0 0.0 -15.039896965 -6.215197563 -41.114601135 3.320799828 11.197098732 32.947406769 3.650699854 -17.552999496 -34.995300293 0.089099996 1.925000072 5.298500061 0.0 -0.0 0.0 22.089097977 15.81539917 -40.923492432 -4.861000061 -13.225498199 40.218486786 -4.303199291 2.23570013 -38.88470459 -0.810899913 -5.746500492 16.050601959 1.724699974 -1.23849988 28.571899414 1.566100001 0.165400043 11.953300476 0.657700002 0.56430006 -2.370100498 -7.851601601 -21.586400986 9.103598595 34.424201965 -23.985300064 -35.268199921 14.025198936 -14.753598213 -6.204000473 0.0 -0.0 0.0 -32.001117706 -65.868927002 22.902318954 22.430799484 -33.460510254 -6.821801186 0.0 -0.0 3.026599884 8.695801735 -13.629001617 -2.064000607 -7.125 0.0 0.0 -12.789798737 16.412000656 8.88130188 0.0 -0.0 0.0 47.098800659 64.204704285 26.269298553 -31.627399445 42.248096466 -12.489596367 0.0 -0.0 3.718800306 -8.351099968 -18.42950058 2.657100201 7.125 -0.0 0.0 18.914901733 -47.657997131 -1.284100056 
0.024101257 29.813999176 -0.052400589 -129.187973022 85.413795471 -109.883003235 0.0 -0.0 0.0 -17.401399612 -2.767396212 -43.198192596 3.384099483 11.292301178 33.272102356 4.207698822 -12.6352005 -37.277500153 0.350599945 -3.804299355 -10.526699066 0.0 -0.0 0.0 21.576601028 16.035499573 -41.530799866 -4.845299721 -13.207396507 40.149993896 -4.170399189 1.066500783 -38.54259491 -0.514699996 -4.59829998 12.766198158 0.664799869 -0.70419991 28.172105789 1.433400154 0.532599986 11.981203079 1.013899803 0.70389986 -2.159299612 -11.520998955 -18.228096008 10.508198738 36.052700043 -19.754501343 -32.899902344 15.572098732 -12.567099571 -5.837599754 0.0 -0.0 0.0 -28.590093613 -64.401992798 23.360990524 24.68860054 -35.884002686 -8.106701851 0.0 0.0 -0.447700024 5.336800098 -12.355600357 -1.145099998 -7.125 0.0 0.0 -15.140101433 17.811903 10.144399643 0.0 -0.0 0.0 46.705688477 64.198600769 25.293088913 -31.280092239 41.965591431 -12.256692886 0.0 -0.0 3.795300007 -8.387199402 -18.556900024 2.686500311 7.125 -0.0 0.0 18.933506012 -47.783805847 -1.346005797 
0.025501251 29.86190033 -0.068600655 -126.073135376 85.853996277 -106.585113525 0.0 -0.0 0.0 -15.637095451 -6.624800205 -41.885204315 3.420100451 11.346000671 33.455711365 4.065200329 -14.280402184 -36.654502869 0.0002 0.086499989 0.237599984 0.0 -0.0 0.0 20.850297928 16.572095871 -41.516895294 -4.830800533 -13.19069767 40.086402893 -4.257700443 3.830500364 -38.332801819 -0.988999903 -6.329699993 17.743999481 -0.204500034 -0.315900028 28.332401276 1.433299899 0.802099884 11.958899498 1.432800055 0.804000139 -2.26609993 -5.084500313 -20.451705933 9.082402229 31.564098358 -22.308601379 -34.644287109 13.111399651 -13.819896698 -7.345798492 0.0 -0.0 0.0 -29.023099899 -66.536483765 21.431100845 22.099899292 -33.089797974 -6.64029932 0.0 -0.0 1.003500223 2.890399456 -13.746599197 -0.687399864 -7.125 0.0 0.0 -16.681098938 16.560598373 11.74769783 0.0 -0.0 0.0 47.320800781 65.540489197 25.37039566 -29.95010376 40.850605011 -11.376904488 0.0 -0.0 4.486999989 -8.981800079 -19.060806274 2.954800129 7.125 -0.0 0.0 18.595497131 -48.34539032 -1.585498333 
0.043800354 29.857099533 -0.101099968 -129.069961548 85.460502625 -109.749916077 0.0 -0.0 0.0 -14.905896187 -7.797299862 -41.56760788 3.510899782 11.479398727 33.914302826 3.980999231 -15.132499695 -36.308601379 0.053399991 1.491899848 4.103299141 0.0 -0.0 0.0 21.805496216 15.550899506 -41.461101532 -4.83179903 -13.191800117 40.090900421 -4.001399994 -1.394900918 -38.447303772 -0.150699988 -2.50129962 6.893400192 -0.525600016 -0.411299974 29.054395676 1.842300296 0.651199937 11.909899712 2.106800795 0.716800034 -2.649800301 -5.220099449 -21.165294647 8.828697205 32.157402039 -23.342302322 -34.535106659 13.10819912 -14.390599251 -6.928798676 0.0 -0.0 0.0 -26.423389435 -65.533584595 21.070987701 23.028404236 -34.119804382 -7.154205322 0.0 0.0 -2.384299994 0.391499996 -12.758200645 -0.086500011 -7.125 0.0 0.0 -18.427103043 17.573604584 12.678899765 0.0 -0.0 0.0 45.669380188 64.514183044 25.438886642 -31.285200119 41.969799042 -12.260101318 0.0 -0.0 3.135700226 -9.252200127 -19.086500168 3.049100161 7.125 -0.0 0.0 18.35720253 -48.408000946 -1.593099475 
0.043201447 29.84690094 -0.059300423 -125.619094849 85.666725159 -106.46105957 0.0 -0.0 0.0 -15.628096581 -6.179398537 -42.029895782 3.532598495 11.511001587 34.023300171 4.02300024 -14.172702789 -36.453090668 0.0021 0.295999974 0.813299954 0.0 -0.0 0.0 21.414495468 16.460996628 -41.041000366 -4.845100403 -13.207202911 40.149295807 -4.171299458 0.82889992 -38.609096527 -0.47149992 -4.403799534 12.215496063 -0.406900018 -0.090600058 29.436004639 1.437400222 1.09160006 12.119703293 1.459599972 0.957900107 -2.596400023 -2.857099533 -20.197698593 9.120599747 30.205804825 -21.705696106 -34.764808655 12.614701271 -13.578501701 -8.110799789 0.0 -0.0 0.0 -23.702798843 -66.41078186 19.770301819 22.778902054 -33.846107483 -7.014802456 0.0 0.0 -3.261600256 -2.47179985 -13.102998734 0.56069988 -7.125 0.0 0.0 -20.272098541 17.295398712 14.254400253 0.0 -0.0 0.0 45.355712891 64.833099365 23.678518295 -30.626501083 41.424404144 -11.821901321 0.0 -0.0 3.279099703 -9.46809864 -17.397201538 2.854599714 7.125 -0.0 0.0 17.498508453 -46.820602417 -0.810305119 
0.078201294 29.798299789 -0.110500336 -123.036079407 84.444198608 -104.209075928 0.0 -0.0 0.0 -16.20059967 -2.319998503 -43.209205627 3.581399441 11.581498146 34.267299652 4.14470005 -13.104300499 -36.989402771 0.247699991 -3.202499866 -8.843000412 0.0 -0.0 0.0 22.899093628 16.0242939 -40.683990479 -4.885699749 -13.25399971 40.326698303 -4.256000042 1.879400253 -38.745903015 -0.612899959 -5.010799408 13.939297676 1.402099848 -0.772899866 30.164400101 1.705200315 0.777599931 12.186902046 0.806699932 0.866999984 -2.83220005 -4.921599388 -19.804397583 9.475001335 30.985197067 -21.521400452 -34.020496368 12.977401733 -13.398600578 -7.496300697 0.0 -0.0 0.0 -21.489109039 -65.388809204 18.747110367 23.337005615 -34.45520401 -7.328004837 0.0 0.0 -4.965899944 -4.495100498 -12.300900459 0.959499955 -7.125 0.0 0.0 -21.684801102 18.057697296 15.010901451 0.0 -0.0 0.0 46.128990173 65.875892639 24.477392197 -29.81870842 40.737503052 -11.291102409 0.0 -0.0 3.745499849 -10.12349987 -15.52259922 2.735699654 7.125 -0.0 0.0 16.250999451 -45.093307495 -0.038500916 
